<svg xmlns="http://www.w3.org/2000/svg" width="28" height="28" fill="none" viewBox="0 0 28 28"><g clip-path="url(#clip0_0_207)"><path fill="#1a73e8" d="M.088 6.221A3.5 3.5 0 0 1 3.5 3.5h21a3.5 3.5 0 0 1 3.413 2.721l-13.914 8.504ZM0 8.22v12.432l10.155-6.227Zm11.832 7.233L.334 22.5a3.5 3.5 0 0 0 3.166 2h21a3.5 3.5 0 0 0 3.164-2.002l-11.498-7.047L14 16.776l-2.168-1.325Zm6.013-1.026L28 20.652V8.22l-10.155 6.205Z"/></g><defs><clipPath id="clip0_0_207"><path fill="#fff" d="M0 0h28v28H0Z"/></clipPath></defs></svg>